<svg width="34" height="34" viewBox="0 0 34 34" fill="none" xmlns="http://www.w3.org/2000/svg">
<rect x="23" y="4" width="6" height="6" fill="#12131A"/>
<path d="M14 4H20V10H14V4Z" fill="#12131A"/>
<rect x="23" y="13" width="6" height="6" fill="#12131A"/>
<path d="M14 13H20V19H14V13Z" fill="#12131A"/>
<path d="M14 22H20V28H14V22Z" fill="#12131A"/>
<path fill-rule="evenodd" clip-rule="evenodd" d="M26.032 3H25.968C25.5294 2.99999 25.1509 2.99998 24.8376 3.02125C24.5078 3.04365 24.1779 3.09292 23.852 3.2273C23.1169 3.53035 22.5328 4.11164 22.2284 4.84329C22.0934 5.16769 22.0439 5.49606 22.0214 5.82435C22 6.13613 22 6.51283 22 6.94941V7.01313C22 7.44971 22 7.82645 22.0214 8.13824C22.0439 8.46652 22.0934 8.79489 22.2284 9.11929C22.5328 9.85094 23.1169 10.4322 23.852 10.7353C24.1779 10.8697 24.5078 10.9189 24.8376 10.9413C25.1509 10.9626 25.5293 10.9626 25.968 10.9626H26.032C26.4706 10.9626 26.8491 10.9626 27.1624 10.9413C27.4922 10.9189 27.8221 10.8697 28.148 10.7353C28.8831 10.4322 29.4672 9.85094 29.7716 9.11929C29.9066 8.79489 29.9561 8.46652 29.9787 8.13824C30 7.82645 30 7.44973 30 7.01313V6.94945C30 6.51285 30 6.13614 29.9787 5.82435C29.9561 5.49606 29.9066 5.16769 29.7716 4.84329C29.4672 4.11164 28.8831 3.53035 28.148 3.2273C27.8221 3.09292 27.4922 3.04365 27.1624 3.02125C26.8491 2.99998 26.4706 2.99999 26.032 3ZM24.6173 5.06641C24.6589 5.04925 24.7458 5.02276 24.9738 5.00728C25.2107 4.99119 25.5204 4.99065 26 4.99065C26.4796 4.99065 26.7893 4.99119 27.0262 5.00728C27.2542 5.02276 27.3411 5.04925 27.3827 5.06641C27.6277 5.16743 27.8224 5.36119 27.9239 5.60508C27.9411 5.64649 27.9677 5.73292 27.9833 5.95985C27.9995 6.19572 28 6.50391 28 6.98129C28 7.45867 27.9995 7.76686 27.9833 8.00273C27.9677 8.22966 27.9411 8.31609 27.9239 8.35751C27.8224 8.60139 27.6277 8.79515 27.3827 8.89617C27.3411 8.91333 27.2542 8.93982 27.0262 8.9553C26.7893 8.9714 26.4796 8.97194 26 8.97194C25.5204 8.97194 25.2107 8.9714 24.9738 8.9553C24.7458 8.93982 24.6589 8.91333 24.6173 8.89617C24.3723 8.79515 24.1776 8.60139 24.0761 8.35751C24.0589 8.31609 24.0323 8.22966 24.0167 8.00273C24.0005 7.76686 24 7.45867 24 6.98129C24 6.50391 24.0005 6.19572 24.0167 5.95985C24.0323 5.73292 24.0589 5.64649 24.0761 5.60508C24.1776 5.36119 24.3723 5.16743 24.6173 5.06641Z" fill="#12131A"/>
<path fill-rule="evenodd" clip-rule="evenodd" d="M16.968 3.02127H17.032C17.4706 3.02126 17.8491 3.02125 18.1624 3.04256C18.4922 3.06501 18.8221 3.11438 19.1481 3.24902C19.8831 3.5527 20.4672 4.13516 20.7716 4.86829C20.9066 5.19336 20.9561 5.52239 20.9786 5.85134C21 6.16377 21 6.54125 21 6.97873V7.04254C21 7.48002 21 7.8575 20.9786 8.16993C20.9561 8.49888 20.9066 8.82791 20.7716 9.15297C20.4672 9.8861 19.8831 10.4686 19.1481 10.7722C18.8221 10.9069 18.4922 10.9563 18.1624 10.9787C17.8491 11 17.4706 11 17.032 11H16.968C16.5294 11 16.1509 11 15.8376 10.9787C15.5078 10.9563 15.1779 10.9069 14.852 10.7722C14.1169 10.4686 13.5329 9.8861 13.2284 9.15297C13.0934 8.82791 13.0439 8.49888 13.0214 8.16993C13 7.8575 13 7.48002 13 7.04253V6.97873C13 6.54125 13 6.16377 13.0214 5.85134C13.0439 5.52239 13.0934 5.19336 13.2284 4.86829C13.5329 4.13516 14.1169 3.5527 14.852 3.24902C15.1779 3.11438 15.5078 3.06501 15.8376 3.04256C16.1509 3.02125 16.5294 3.02126 16.968 3.02127ZM15.9738 5.03262C15.7458 5.04813 15.6589 5.07468 15.6173 5.09187C15.3723 5.19309 15.1776 5.38725 15.0761 5.63163C15.0589 5.67313 15.0323 5.75973 15.0167 5.98712C15.0005 6.22347 15 6.53228 15 7.01063C15 7.48898 15.0005 7.79779 15.0167 8.03414C15.0323 8.26154 15.0589 8.34814 15.0761 8.38964C15.1776 8.63402 15.3723 8.82817 15.6173 8.9294C15.6589 8.94659 15.7458 8.97313 15.9738 8.98865C16.2107 9.00478 16.5204 9.00532 17 9.00532C17.4796 9.00532 17.7893 9.00478 18.0262 8.98865C18.2542 8.97313 18.3411 8.94659 18.3827 8.9294C18.6277 8.82817 18.8224 8.63402 18.9239 8.38964C18.9411 8.34814 18.9677 8.26154 18.9833 8.03414C18.9995 7.79779 19 7.48898 19 7.01063C19 6.53228 18.9995 6.22347 18.9833 5.98712C18.9677 5.75973 18.9411 5.67313 18.9239 5.63163C18.8224 5.38725 18.6277 5.19309 18.3827 5.09187C18.3411 5.07468 18.2542 5.04813 18.0262 5.03262C17.7893 5.01649 17.4796 5.01595 17 5.01595C16.5204 5.01595 16.2107 5.01649 15.9738 5.03262Z" fill="#12131A"/>
<path fill-rule="evenodd" clip-rule="evenodd" d="M7.96802 2.99995H8.03198C8.47063 2.99994 8.84912 2.99993 9.16238 3.02125C9.49221 3.04369 9.82212 3.09306 10.148 3.22771C10.8831 3.53138 11.4672 4.11385 11.7716 4.84698C11.9066 5.17204 11.9561 5.50107 11.9786 5.83003C12 6.14245 12 6.51993 12 6.95741V7.02122C12 7.4587 12 7.83618 11.9786 8.14861C11.9561 8.47756 11.9066 8.80659 11.7716 9.13166C11.4672 9.86479 10.8831 10.4473 10.148 10.7509C9.82212 10.8856 9.49221 10.9349 9.16238 10.9574C8.84912 10.9787 8.47064 10.9787 8.03199 10.9787H7.96801C7.52936 10.9787 7.15087 10.9787 6.83762 10.9574C6.50779 10.9349 6.17788 10.8856 5.85195 10.7509C5.11687 10.4473 4.53284 9.86479 4.22836 9.13166C4.09336 8.80659 4.04385 8.47756 4.02135 8.14861C3.99998 7.83618 3.99999 7.4587 4 7.02122V6.95742C3.99999 6.51993 3.99998 6.14245 4.02135 5.83003C4.04385 5.50107 4.09336 5.17204 4.22836 4.84698C4.53284 4.11385 5.11687 3.53138 5.85195 3.22771C6.17788 3.09306 6.50779 3.04369 6.83762 3.02125C7.15088 2.99993 7.52936 2.99994 7.96802 2.99995ZM6.97376 5.0113C6.74576 5.02682 6.65893 5.05336 6.61732 5.07055C6.37229 5.17178 6.17761 5.36593 6.07612 5.61031C6.05888 5.65181 6.03227 5.73841 6.01671 5.96581C6.00054 6.20216 6 6.51097 6 6.98932C6 7.46767 6.00054 7.77648 6.01671 8.01283C6.03227 8.24022 6.05888 8.32682 6.07612 8.36832C6.17761 8.6127 6.37229 8.80686 6.61732 8.90808C6.65893 8.92527 6.74576 8.95182 6.97376 8.96733C7.21074 8.98346 7.52038 8.984 8 8.984C8.47962 8.984 8.78926 8.98346 9.02624 8.96733C9.25424 8.95182 9.34107 8.92527 9.38268 8.90808C9.62771 8.80686 9.82238 8.6127 9.92388 8.36832C9.94111 8.32682 9.96773 8.24022 9.98329 8.01283C9.99946 7.77648 10 7.46767 10 6.98932C10 6.51097 9.99946 6.20216 9.98329 5.96581C9.96773 5.73841 9.94111 5.65181 9.92388 5.61031C9.82238 5.36593 9.62771 5.17178 9.38268 5.07055C9.34107 5.05336 9.25424 5.02682 9.02624 5.0113C8.78926 4.99518 8.47962 4.99463 8 4.99463C7.52038 4.99463 7.21074 4.99518 6.97376 5.0113Z" fill="#12131A"/>
<path fill-rule="evenodd" clip-rule="evenodd" d="M26.032 12H25.968C25.5294 12 25.1509 12 24.8376 12.0213C24.5078 12.0437 24.1779 12.0929 23.852 12.2273C23.1169 12.5304 22.5328 13.1116 22.2284 13.8433C22.0934 14.1677 22.0439 14.4961 22.0214 14.8243C22 15.1361 22 15.5128 22 15.9494V16.0131C22 16.4497 22 16.8265 22.0214 17.1382C22.0439 17.4665 22.0934 17.7949 22.2284 18.1193C22.5328 18.8509 23.1169 19.4322 23.852 19.7353C24.1779 19.8697 24.5078 19.9189 24.8376 19.9413C25.1509 19.9626 25.5293 19.9626 25.968 19.9626H26.032C26.4706 19.9626 26.8491 19.9626 27.1624 19.9413C27.4922 19.9189 27.8221 19.8697 28.148 19.7353C28.8831 19.4322 29.4672 18.8509 29.7716 18.1193C29.9066 17.7949 29.9561 17.4665 29.9787 17.1382C30 16.8264 30 16.4497 30 16.0131V15.9495C30 15.5129 30 15.1361 29.9787 14.8243C29.9561 14.4961 29.9066 14.1677 29.7716 13.8433C29.4672 13.1116 28.8831 12.5304 28.148 12.2273C27.8221 12.0929 27.4922 12.0437 27.1624 12.0213C26.8491 12 26.4706 12 26.032 12ZM24.6173 14.0664C24.6589 14.0493 24.7458 14.0228 24.9738 14.0073C25.2107 13.9912 25.5204 13.9906 26 13.9906C26.4796 13.9906 26.7893 13.9912 27.0262 14.0073C27.2542 14.0228 27.3411 14.0493 27.3827 14.0664C27.6277 14.1674 27.8224 14.3612 27.9239 14.6051C27.9411 14.6465 27.9677 14.7329 27.9833 14.9599C27.9995 15.1957 28 15.5039 28 15.9813C28 16.4587 27.9995 16.7669 27.9833 17.0027C27.9677 17.2297 27.9411 17.3161 27.9239 17.3575C27.8224 17.6014 27.6277 17.7952 27.3827 17.8962C27.3411 17.9133 27.2542 17.9398 27.0262 17.9553C26.7893 17.9714 26.4796 17.9719 26 17.9719C25.5204 17.9719 25.2107 17.9714 24.9738 17.9553C24.7458 17.9398 24.6589 17.9133 24.6173 17.8962C24.3723 17.7952 24.1776 17.6014 24.0761 17.3575C24.0589 17.3161 24.0323 17.2297 24.0167 17.0027C24.0005 16.7669 24 16.4587 24 15.9813C24 15.5039 24.0005 15.1957 24.0167 14.9599C24.0323 14.7329 24.0589 14.6465 24.0761 14.6051C24.1776 14.3612 24.3723 14.1674 24.6173 14.0664Z" fill="#12131A"/>
<path fill-rule="evenodd" clip-rule="evenodd" d="M16.968 12.0213H17.032C17.4706 12.0213 17.8491 12.0213 18.1624 12.0426C18.4922 12.0651 18.8221 12.1144 19.1481 12.2491C19.8831 12.5527 20.4672 13.1352 20.7716 13.8683C20.9066 14.1934 20.9561 14.5224 20.9786 14.8514C21 15.1638 21 15.5413 21 15.9788V16.0426C21 16.48 21 16.8575 20.9786 17.1699C20.9561 17.4989 20.9066 17.8279 20.7716 18.153C20.4672 18.8861 19.8831 19.4686 19.1481 19.7722C18.8221 19.9069 18.4922 19.9563 18.1624 19.9787C17.8491 20 17.4706 20 17.032 20H16.968C16.5294 20 16.1509 20 15.8376 19.9787C15.5078 19.9563 15.1779 19.9069 14.852 19.7722C14.1169 19.4686 13.5329 18.8861 13.2284 18.153C13.0934 17.8279 13.0439 17.4989 13.0214 17.1699C13 16.8575 13 16.48 13 16.0426V15.9788C13 15.5413 13 15.1638 13.0214 14.8514C13.0439 14.5224 13.0934 14.1934 13.2284 13.8683C13.5329 13.1352 14.1169 12.5527 14.852 12.2491C15.1779 12.1144 15.5078 12.0651 15.8376 12.0426C16.1509 12.0213 16.5294 12.0213 16.968 12.0213ZM15.9738 14.0327C15.7458 14.0482 15.6589 14.0747 15.6173 14.0919C15.3723 14.1931 15.1776 14.3873 15.0761 14.6317C15.0589 14.6732 15.0323 14.7598 15.0167 14.9872C15.0005 15.2235 15 15.5323 15 16.0107C15 16.489 15.0005 16.7978 15.0167 17.0342C15.0323 17.2616 15.0589 17.3482 15.0761 17.3897C15.1776 17.634 15.3723 17.8282 15.6173 17.9294C15.6589 17.9466 15.7458 17.9731 15.9738 17.9887C16.2107 18.0048 16.5204 18.0053 17 18.0053C17.4796 18.0053 17.7893 18.0048 18.0262 17.9887C18.2542 17.9731 18.3411 17.9466 18.3827 17.9294C18.6277 17.8282 18.8224 17.634 18.9239 17.3897C18.9411 17.3482 18.9677 17.2616 18.9833 17.0342C18.9995 16.7978 19 16.489 19 16.0107C19 15.5323 18.9995 15.2235 18.9833 14.9872C18.9677 14.7598 18.9411 14.6732 18.9239 14.6317C18.8224 14.3873 18.6277 14.1931 18.3827 14.0919C18.3411 14.0747 18.2542 14.0482 18.0262 14.0327C17.7893 14.0165 17.4796 14.016 17 14.016C16.5204 14.016 16.2107 14.0165 15.9738 14.0327Z" fill="#12131A"/>
<path fill-rule="evenodd" clip-rule="evenodd" d="M7.96802 12H8.03198C8.47063 12 8.84912 12 9.16238 12.0213C9.49221 12.0437 9.82212 12.0931 10.148 12.2278C10.8831 12.5314 11.4672 13.1139 11.7716 13.847C11.9066 14.1721 11.9561 14.5011 11.9786 14.8301C12 15.1425 12 15.52 12 15.9574V16.0212C12 16.4587 12 16.8362 11.9786 17.1486C11.9561 17.4776 11.9066 17.8066 11.7716 18.1317C11.4672 18.8648 10.8831 19.4473 10.148 19.7509C9.82212 19.8856 9.49221 19.9349 9.16238 19.9574C8.84912 19.9787 8.47064 19.9787 8.03199 19.9787H7.96801C7.52936 19.9787 7.15087 19.9787 6.83762 19.9574C6.50779 19.9349 6.17788 19.8856 5.85195 19.7509C5.11687 19.4473 4.53284 18.8648 4.22836 18.1317C4.09336 17.8066 4.04385 17.4776 4.02135 17.1486C3.99998 16.8362 3.99999 16.4587 4 16.0212V15.9574C3.99999 15.52 3.99998 15.1425 4.02135 14.8301C4.04385 14.5011 4.09336 14.1721 4.22836 13.847C4.53284 13.1139 5.11687 12.5314 5.85195 12.2278C6.17788 12.0931 6.50779 12.0437 6.83762 12.0213C7.15088 12 7.52937 12 7.96802 12ZM6.97376 14.0113C6.74576 14.0269 6.65893 14.0534 6.61732 14.0706C6.37229 14.1718 6.17761 14.366 6.07612 14.6103C6.05888 14.6518 6.03227 14.7384 6.01671 14.9658C6.00054 15.2022 6 15.511 6 15.9893C6 16.4677 6.00054 16.7765 6.01671 17.0128C6.03227 17.2402 6.05888 17.3268 6.07612 17.3683C6.17761 17.6127 6.37229 17.8069 6.61732 17.9081C6.65893 17.9253 6.74576 17.9518 6.97376 17.9673C7.21074 17.9835 7.52038 17.984 8 17.984C8.47962 17.984 8.78926 17.9835 9.02624 17.9673C9.25424 17.9518 9.34107 17.9253 9.38268 17.9081C9.62771 17.8069 9.82238 17.6127 9.92388 17.3683C9.94111 17.3268 9.96773 17.2402 9.98329 17.0128C9.99946 16.7765 10 16.4677 10 15.9893C10 15.511 9.99946 15.2022 9.98329 14.9658C9.96773 14.7384 9.94111 14.6518 9.92388 14.6103C9.82238 14.366 9.62771 14.1718 9.38268 14.0706C9.34107 14.0534 9.25424 14.0269 9.02624 14.0113C8.78926 13.9952 8.47962 13.9947 8 13.9947C7.52038 13.9947 7.21074 13.9952 6.97376 14.0113Z" fill="#12131A"/>
<path fill-rule="evenodd" clip-rule="evenodd" d="M26.032 12H25.968C25.5294 12 25.1509 12 24.8376 12.0213C24.5078 12.0437 24.1779 12.0929 23.852 12.2273C23.1169 12.5304 22.5328 13.1116 22.2284 13.8433C22.0934 14.1677 22.0439 14.4961 22.0214 14.8243C22 15.1361 22 15.5128 22 15.9494V16.0131C22 16.4497 22 16.8265 22.0214 17.1382C22.0439 17.4665 22.0934 17.7949 22.2284 18.1193C22.5328 18.8509 23.1169 19.4322 23.852 19.7353C24.1779 19.8697 24.5078 19.9189 24.8376 19.9413C25.1509 19.9626 25.5293 19.9626 25.968 19.9626H26.032C26.4706 19.9626 26.8491 19.9626 27.1624 19.9413C27.4922 19.9189 27.8221 19.8697 28.148 19.7353C28.8831 19.4322 29.4672 18.8509 29.7716 18.1193C29.9066 17.7949 29.9561 17.4665 29.9787 17.1382C30 16.8264 30 16.4497 30 16.0131V15.9495C30 15.5129 30 15.1361 29.9787 14.8243C29.9561 14.4961 29.9066 14.1677 29.7716 13.8433C29.4672 13.1116 28.8831 12.5304 28.148 12.2273C27.8221 12.0929 27.4922 12.0437 27.1624 12.0213C26.8491 12 26.4706 12 26.032 12ZM24.6173 14.0664C24.6589 14.0493 24.7458 14.0228 24.9738 14.0073C25.2107 13.9912 25.5204 13.9906 26 13.9906C26.4796 13.9906 26.7893 13.9912 27.0262 14.0073C27.2542 14.0228 27.3411 14.0493 27.3827 14.0664C27.6277 14.1674 27.8224 14.3612 27.9239 14.6051C27.9411 14.6465 27.9677 14.7329 27.9833 14.9599C27.9995 15.1957 28 15.5039 28 15.9813C28 16.4587 27.9995 16.7669 27.9833 17.0027C27.9677 17.2297 27.9411 17.3161 27.9239 17.3575C27.8224 17.6014 27.6277 17.7952 27.3827 17.8962C27.3411 17.9133 27.2542 17.9398 27.0262 17.9553C26.7893 17.9714 26.4796 17.9719 26 17.9719C25.5204 17.9719 25.2107 17.9714 24.9738 17.9553C24.7458 17.9398 24.6589 17.9133 24.6173 17.8962C24.3723 17.7952 24.1776 17.6014 24.0761 17.3575C24.0589 17.3161 24.0323 17.2297 24.0167 17.0027C24.0005 16.7669 24 16.4587 24 15.9813C24 15.5039 24.0005 15.1957 24.0167 14.9599C24.0323 14.7329 24.0589 14.6465 24.0761 14.6051C24.1776 14.3612 24.3723 14.1674 24.6173 14.0664Z" fill="#12131A"/>
<path fill-rule="evenodd" clip-rule="evenodd" d="M16.968 12.0213H17.032C17.4706 12.0213 17.8491 12.0213 18.1624 12.0426C18.4922 12.0651 18.8221 12.1144 19.1481 12.2491C19.8831 12.5527 20.4672 13.1352 20.7716 13.8683C20.9066 14.1934 20.9561 14.5224 20.9786 14.8514C21 15.1638 21 15.5413 21 15.9788V16.0426C21 16.48 21 16.8575 20.9786 17.1699C20.9561 17.4989 20.9066 17.8279 20.7716 18.153C20.4672 18.8861 19.8831 19.4686 19.1481 19.7722C18.8221 19.9069 18.4922 19.9563 18.1624 19.9787C17.8491 20 17.4706 20 17.032 20H16.968C16.5294 20 16.1509 20 15.8376 19.9787C15.5078 19.9563 15.1779 19.9069 14.852 19.7722C14.1169 19.4686 13.5329 18.8861 13.2284 18.153C13.0934 17.8279 13.0439 17.4989 13.0214 17.1699C13 16.8575 13 16.48 13 16.0426V15.9788C13 15.5413 13 15.1638 13.0214 14.8514C13.0439 14.5224 13.0934 14.1934 13.2284 13.8683C13.5329 13.1352 14.1169 12.5527 14.852 12.2491C15.1779 12.1144 15.5078 12.0651 15.8376 12.0426C16.1509 12.0213 16.5294 12.0213 16.968 12.0213ZM15.9738 14.0327C15.7458 14.0482 15.6589 14.0747 15.6173 14.0919C15.3723 14.1931 15.1776 14.3873 15.0761 14.6317C15.0589 14.6732 15.0323 14.7598 15.0167 14.9872C15.0005 15.2235 15 15.5323 15 16.0107C15 16.489 15.0005 16.7978 15.0167 17.0342C15.0323 17.2616 15.0589 17.3482 15.0761 17.3897C15.1776 17.634 15.3723 17.8282 15.6173 17.9294C15.6589 17.9466 15.7458 17.9731 15.9738 17.9887C16.2107 18.0048 16.5204 18.0053 17 18.0053C17.4796 18.0053 17.7893 18.0048 18.0262 17.9887C18.2542 17.9731 18.3411 17.9466 18.3827 17.9294C18.6277 17.8282 18.8224 17.634 18.9239 17.3897C18.9411 17.3482 18.9677 17.2616 18.9833 17.0342C18.9995 16.7978 19 16.489 19 16.0107C19 15.5323 18.9995 15.2235 18.9833 14.9872C18.9677 14.7598 18.9411 14.6732 18.9239 14.6317C18.8224 14.3873 18.6277 14.1931 18.3827 14.0919C18.3411 14.0747 18.2542 14.0482 18.0262 14.0327C17.7893 14.0165 17.4796 14.016 17 14.016C16.5204 14.016 16.2107 14.0165 15.9738 14.0327Z" fill="#12131A"/>
<path fill-rule="evenodd" clip-rule="evenodd" d="M7.96802 12H8.03198C8.47063 12 8.84912 12 9.16238 12.0213C9.49221 12.0437 9.82212 12.0931 10.148 12.2278C10.8831 12.5314 11.4672 13.1139 11.7716 13.847C11.9066 14.1721 11.9561 14.5011 11.9786 14.8301C12 15.1425 12 15.52 12 15.9574V16.0212C12 16.4587 12 16.8362 11.9786 17.1486C11.9561 17.4776 11.9066 17.8066 11.7716 18.1317C11.4672 18.8648 10.8831 19.4473 10.148 19.7509C9.82212 19.8856 9.49221 19.9349 9.16238 19.9574C8.84912 19.9787 8.47064 19.9787 8.03199 19.9787H7.96801C7.52936 19.9787 7.15087 19.9787 6.83762 19.9574C6.50779 19.9349 6.17788 19.8856 5.85195 19.7509C5.11687 19.4473 4.53284 18.8648 4.22836 18.1317C4.09336 17.8066 4.04385 17.4776 4.02135 17.1486C3.99998 16.8362 3.99999 16.4587 4 16.0212V15.9574C3.99999 15.52 3.99998 15.1425 4.02135 14.8301C4.04385 14.5011 4.09336 14.1721 4.22836 13.847C4.53284 13.1139 5.11687 12.5314 5.85195 12.2278C6.17788 12.0931 6.50779 12.0437 6.83762 12.0213C7.15088 12 7.52937 12 7.96802 12ZM6.97376 14.0113C6.74576 14.0269 6.65893 14.0534 6.61732 14.0706C6.37229 14.1718 6.17761 14.366 6.07612 14.6103C6.05888 14.6518 6.03227 14.7384 6.01671 14.9658C6.00054 15.2022 6 15.511 6 15.9893C6 16.4677 6.00054 16.7765 6.01671 17.0128C6.03227 17.2402 6.05888 17.3268 6.07612 17.3683C6.17761 17.6127 6.37229 17.8069 6.61732 17.9081C6.65893 17.9253 6.74576 17.9518 6.97376 17.9673C7.21074 17.9835 7.52038 17.984 8 17.984C8.47962 17.984 8.78926 17.9835 9.02624 17.9673C9.25424 17.9518 9.34107 17.9253 9.38268 17.9081C9.62771 17.8069 9.82238 17.6127 9.92388 17.3683C9.94111 17.3268 9.96773 17.2402 9.98329 17.0128C9.99946 16.7765 10 16.4677 10 15.9893C10 15.511 9.99946 15.2022 9.98329 14.9658C9.96773 14.7384 9.94111 14.6518 9.92388 14.6103C9.82238 14.366 9.62771 14.1718 9.38268 14.0706C9.34107 14.0534 9.25424 14.0269 9.02624 14.0113C8.78926 13.9952 8.47962 13.9947 8 13.9947C7.52038 13.9947 7.21074 13.9952 6.97376 14.0113Z" fill="#12131A"/>
<path fill-rule="evenodd" clip-rule="evenodd" d="M26.032 21H25.968C25.5294 21 25.1509 21 24.8376 21.0213C24.5078 21.0437 24.1779 21.0929 23.852 21.2273C23.1169 21.5304 22.5328 22.1116 22.2284 22.8433C22.0934 23.1677 22.0439 23.4961 22.0214 23.8243C22 24.1361 22 24.5128 22 24.9494V25.0131C22 25.4497 22 25.8265 22.0214 26.1382C22.0439 26.4665 22.0934 26.7949 22.2284 27.1193C22.5328 27.8509 23.1169 28.4322 23.852 28.7353C24.1779 28.8697 24.5078 28.9189 24.8376 28.9413C25.1509 28.9626 25.5293 28.9626 25.968 28.9626H26.032C26.4706 28.9626 26.8491 28.9626 27.1624 28.9413C27.4922 28.9189 27.8221 28.8697 28.148 28.7353C28.8831 28.4322 29.4672 27.8509 29.7716 27.1193C29.9066 26.7949 29.9561 26.4665 29.9787 26.1382C30 25.8264 30 25.4497 30 25.0131V24.9495C30 24.5129 30 24.1361 29.9787 23.8243C29.9561 23.4961 29.9066 23.1677 29.7716 22.8433C29.4672 22.1116 28.8831 21.5304 28.148 21.2273C27.8221 21.0929 27.4922 21.0437 27.1624 21.0213C26.8491 21 26.4706 21 26.032 21ZM24.6173 23.0664C24.6589 23.0493 24.7458 23.0228 24.9738 23.0073C25.2107 22.9912 25.5204 22.9906 26 22.9906C26.4796 22.9906 26.7893 22.9912 27.0262 23.0073C27.2542 23.0228 27.3411 23.0493 27.3827 23.0664C27.6277 23.1674 27.8224 23.3612 27.9239 23.6051C27.9411 23.6465 27.9677 23.7329 27.9833 23.9599C27.9995 24.1957 28 24.5039 28 24.9813C28 25.4587 27.9995 25.7669 27.9833 26.0027C27.9677 26.2297 27.9411 26.3161 27.9239 26.3575C27.8224 26.6014 27.6277 26.7952 27.3827 26.8962C27.3411 26.9133 27.2542 26.9398 27.0262 26.9553C26.7893 26.9714 26.4796 26.9719 26 26.9719C25.5204 26.9719 25.2107 26.9714 24.9738 26.9553C24.7458 26.9398 24.6589 26.9133 24.6173 26.8962C24.3723 26.7952 24.1776 26.6014 24.0761 26.3575C24.0589 26.3161 24.0323 26.2297 24.0167 26.0027C24.0005 25.7669 24 25.4587 24 24.9813C24 24.5039 24.0005 24.1957 24.0167 23.9599C24.0323 23.7329 24.0589 23.6465 24.0761 23.6051C24.1776 23.3612 24.3723 23.1674 24.6173 23.0664Z" fill="#12131A"/>
<path fill-rule="evenodd" clip-rule="evenodd" d="M16.968 21.0213H17.032C17.4706 21.0213 17.8491 21.0213 18.1624 21.0426C18.4922 21.0651 18.8221 21.1144 19.1481 21.2491C19.8831 21.5527 20.4672 22.1352 20.7716 22.8683C20.9066 23.1934 20.9561 23.5224 20.9786 23.8514C21 24.1638 21 24.5413 21 24.9788V25.0426C21 25.48 21 25.8575 20.9786 26.1699C20.9561 26.4989 20.9066 26.8279 20.7716 27.153C20.4672 27.8861 19.8831 28.4686 19.1481 28.7722C18.8221 28.9069 18.4922 28.9563 18.1624 28.9787C17.8491 29 17.4706 29 17.032 29H16.968C16.5294 29 16.1509 29 15.8376 28.9787C15.5078 28.9563 15.1779 28.9069 14.852 28.7722C14.1169 28.4686 13.5329 27.8861 13.2284 27.153C13.0934 26.8279 13.0439 26.4989 13.0214 26.1699C13 25.8575 13 25.48 13 25.0426V24.9788C13 24.5413 13 24.1638 13.0214 23.8514C13.0439 23.5224 13.0934 23.1934 13.2284 22.8683C13.5329 22.1352 14.1169 21.5527 14.852 21.2491C15.1779 21.1144 15.5078 21.0651 15.8376 21.0426C16.1509 21.0213 16.5294 21.0213 16.968 21.0213ZM15.9738 23.0327C15.7458 23.0482 15.6589 23.0747 15.6173 23.0919C15.3723 23.1931 15.1776 23.3873 15.0761 23.6317C15.0589 23.6732 15.0323 23.7598 15.0167 23.9872C15.0005 24.2235 15 24.5323 15 25.0107C15 25.489 15.0005 25.7978 15.0167 26.0342C15.0323 26.2616 15.0589 26.3482 15.0761 26.3897C15.1776 26.634 15.3723 26.8282 15.6173 26.9294C15.6589 26.9466 15.7458 26.9731 15.9738 26.9887C16.2107 27.0048 16.5204 27.0053 17 27.0053C17.4796 27.0053 17.7893 27.0048 18.0262 26.9887C18.2542 26.9731 18.3411 26.9466 18.3827 26.9294C18.6277 26.8282 18.8224 26.634 18.9239 26.3897C18.9411 26.3482 18.9677 26.2616 18.9833 26.0342C18.9995 25.7978 19 25.489 19 25.0107C19 24.5323 18.9995 24.2235 18.9833 23.9872C18.9677 23.7598 18.9411 23.6732 18.9239 23.6317C18.8224 23.3873 18.6277 23.1931 18.3827 23.0919C18.3411 23.0747 18.2542 23.0482 18.0262 23.0327C17.7893 23.0165 17.4796 23.016 17 23.016C16.5204 23.016 16.2107 23.0165 15.9738 23.0327Z" fill="#12131A"/>
<path fill-rule="evenodd" clip-rule="evenodd" d="M7.96802 21H8.03198C8.47063 21 8.84912 21 9.16238 21.0213C9.49221 21.0437 9.82212 21.0931 10.148 21.2278C10.8831 21.5314 11.4672 22.1139 11.7716 22.847C11.9066 23.1721 11.9561 23.5011 11.9786 23.8301C12 24.1425 12 24.52 12 24.9574V25.0212C12 25.4587 12 25.8362 11.9786 26.1486C11.9561 26.4776 11.9066 26.8066 11.7716 27.1317C11.4672 27.8648 10.8831 28.4473 10.148 28.7509C9.82212 28.8856 9.49221 28.9349 9.16238 28.9574C8.84912 28.9787 8.47064 28.9787 8.03199 28.9787H7.96801C7.52936 28.9787 7.15087 28.9787 6.83762 28.9574C6.50779 28.9349 6.17788 28.8856 5.85195 28.7509C5.11687 28.4473 4.53284 27.8648 4.22836 27.1317C4.09336 26.8066 4.04385 26.4776 4.02135 26.1486C3.99998 25.8362 3.99999 25.4587 4 25.0212V24.9574C3.99999 24.52 3.99998 24.1425 4.02135 23.8301C4.04385 23.5011 4.09336 23.1721 4.22836 22.847C4.53284 22.1139 5.11687 21.5314 5.85195 21.2278C6.17788 21.0931 6.50779 21.0437 6.83762 21.0213C7.15088 21 7.52937 21 7.96802 21ZM6.97376 23.0113C6.74576 23.0269 6.65893 23.0534 6.61732 23.0706C6.37229 23.1718 6.17761 23.366 6.07612 23.6103C6.05888 23.6518 6.03227 23.7384 6.01671 23.9658C6.00054 24.2022 6 24.511 6 24.9893C6 25.4677 6.00054 25.7765 6.01671 26.0128C6.03227 26.2402 6.05888 26.3268 6.07612 26.3683C6.17761 26.6127 6.37229 26.8069 6.61732 26.9081C6.65893 26.9253 6.74576 26.9518 6.97376 26.9673C7.21074 26.9835 7.52038 26.984 8 26.984C8.47962 26.984 8.78926 26.9835 9.02624 26.9673C9.25424 26.9518 9.34107 26.9253 9.38268 26.9081C9.62771 26.8069 9.82238 26.6127 9.92388 26.3683C9.94111 26.3268 9.96773 26.2402 9.98329 26.0128C9.99946 25.7765 10 25.4677 10 24.9893C10 24.511 9.99946 24.2022 9.98329 23.9658C9.96773 23.7384 9.94111 23.6518 9.92388 23.6103C9.82238 23.366 9.62771 23.1718 9.38268 23.0706C9.34107 23.0534 9.25424 23.0269 9.02624 23.0113C8.78926 22.9952 8.47962 22.9947 8 22.9947C7.52038 22.9947 7.21074 22.9952 6.97376 23.0113Z" fill="#12131A"/>
</svg>
